<svg width="180" height="179" viewBox="0 0 180 179" fill="none" xmlns="http://www.w3.org/2000/svg"><path d="M89.507 0l16.504 12.355 20.102-4.574 10.052 18 20.225 3.997 1.862 20.532 16.85 11.878-6.65 19.514 10.562 17.706-14.012 15.122 2.447 20.47-18.951 8.116-6.09 19.696-20.614-.295-13.575 15.516-18.712-8.653-18.712 8.653-13.575-15.516-20.614.295-6.09-19.696L11.565 135l2.447-20.47L0 99.408l10.562-17.706-6.65-19.514 16.85-11.878 1.862-20.532 20.225-3.998 10.052-18 20.102 4.575L89.507 0z" fill="#4B4B4B"/></svg>