<svg width="233" height="232" viewBox="0 0 233 232" fill="none" xmlns="http://www.w3.org/2000/svg"><path d="M116.359 0l21.455 16.061 26.133-5.946 13.068 23.4 26.292 5.197 2.421 26.691 21.905 15.442-8.645 25.368 13.73 23.017-18.216 19.659 3.182 26.611-24.637 10.55-7.917 25.605-26.798-.383-17.647 20.171-24.326-11.249-24.326 11.249-17.647-20.171-26.798.383-7.917-25.605-24.637-10.55 3.182-26.611L0 129.23l13.73-23.017-8.645-25.368L26.99 65.403l2.421-26.691 26.292-5.198 13.068-23.399 26.133 5.946L116.359 0z" fill="#625B56"/></svg>